<svg width="28" height="30" viewBox="0 0 28 30" fill="none" xmlns="http://www.w3.org/2000/svg">
<g clip-path="url(#clip0_3_457)">
<path d="M19.8496 13.8563H20.7496V14.7563H19.8496V13.8563Z" fill="white"/>
<path d="M18.0498 13.8563H18.9498V14.7563H18.0498V13.8563Z" fill="white"/>
<path d="M16.25 13.8562H17.15V14.7562H16.25V13.8562Z" fill="white"/>
<path d="M27.5 6.20619V5.3062H18.5V4.4062C18.5 2.66966 17.0865 1.2562 15.35 1.2562H12.65C10.9135 1.2562 9.49999 2.66966 9.49999 4.4062V5.3062H5.89999C5.65109 5.3062 5.44999 5.50729 5.44999 5.7562V14.3062C5.44999 14.5911 5.50845 14.8615 5.60568 15.1126L0.837485 16.3457C0.639001 16.3969 0.499985 16.5761 0.499985 16.7812C0.499985 16.9863 0.639001 17.1655 0.837485 17.2168L6.80011 18.7586V21.0562H1.85011V21.9562H6.80011V22.8562H3.20011V23.7562H6.80011V24.6562H4.55011V25.5562H7.1776L13.8576 27.7829C13.9037 27.7982 13.9523 27.8062 13.9999 27.8062C14.0475 27.8062 14.0961 27.7982 14.1421 27.7829L20.8921 25.5329C21.0761 25.4717 21.1999 25.3001 21.1999 25.1062V18.7584L25.6999 17.5946V24.0993L24.8471 25.8043C24.7836 25.9306 24.7836 26.0801 24.8471 26.2071L25.7471 28.0071C25.8236 28.1597 25.9793 28.256 26.1499 28.256C26.3204 28.256 26.4761 28.1597 26.5527 28.0071L27.4527 26.2071C27.5161 26.0807 27.5161 25.9312 27.4527 25.8043L26.5999 24.0997V17.362L27.1624 17.2166C27.3609 17.1653 27.4999 16.9861 27.4999 16.781C27.4999 16.5759 27.3609 16.3967 27.1624 16.3455L22.3942 15.112C22.4914 14.8613 22.5499 14.5909 22.5499 14.306V9.80604H24.7999V8.90604H22.5499V8.00604H26.1499V7.10604H22.5499V6.20604L27.5 6.20619ZM26.15 26.7997L25.753 26.006L26.15 25.2122L26.5469 26.006L26.15 26.7997ZM10.4 4.4062C10.4 3.16548 11.4093 2.1562 12.65 2.1562H15.35C16.5907 2.1562 17.6 3.16548 17.6 4.4062V5.3062H16.7V4.4062C16.7 3.66187 16.0943 3.0562 15.35 3.0562H12.65C11.9057 3.0562 11.3 3.66187 11.3 4.4062V5.3062H10.4V4.4062ZM15.8 5.3062H12.2V4.4062C12.2 4.15789 12.4017 3.9562 12.65 3.9562H15.35C15.5983 3.9562 15.8 4.15789 15.8 4.4062V5.3062ZM6.34999 6.20619H21.65V8.0062C21.65 8.75052 21.0443 9.3562 20.3 9.3562H15.8V8.0062C15.8 7.75729 15.5989 7.5562 15.35 7.5562H12.65C12.4011 7.5562 12.2 7.75729 12.2 8.0062V9.3562H7.69999C6.95567 9.3562 6.34999 8.75052 6.34999 8.0062V6.20619ZM21.65 14.3062C21.65 14.6122 21.5437 14.8912 21.372 15.118C21.3693 15.1212 21.3651 15.1234 21.3625 15.127C21.299 15.2094 21.2275 15.2823 21.1502 15.3466C21.1465 15.3498 21.1429 15.3528 21.1389 15.3556C21.0688 15.4127 20.9931 15.4601 20.9139 15.5019C20.9005 15.5087 20.8878 15.5172 20.8743 15.5236C20.8018 15.5588 20.7259 15.5843 20.6479 15.6056C20.6291 15.6106 20.6116 15.6186 20.5925 15.6226C20.4975 15.6435 20.3998 15.6562 20.3 15.6562H7.7C7.60015 15.6562 7.50252 15.6435 7.4071 15.622C7.38781 15.618 7.37013 15.61 7.35165 15.605C7.27431 15.5839 7.19777 15.5582 7.12585 15.523C7.11199 15.5168 7.09933 15.5081 7.08587 15.5013C7.00712 15.4599 6.93098 15.4121 6.86127 15.3555C6.85766 15.3522 6.85404 15.3492 6.85002 15.3464C6.77268 15.2821 6.70116 15.2092 6.63768 15.1268C6.63507 15.1232 6.63145 15.1214 6.62824 15.1178C6.45627 14.8912 6.35 14.6122 6.35 14.3062V9.79453C6.72707 10.0802 7.19152 10.2562 7.7 10.2562H8.15V11.6062C8.15 11.8551 8.35109 12.0562 8.6 12.0562H10.4C10.6489 12.0562 10.85 11.8551 10.85 11.6062V10.2562H17.15V11.6062C17.15 11.8551 17.3511 12.0562 17.6 12.0562H19.4C19.6489 12.0562 19.85 11.8551 19.85 11.6062V10.2562H20.3C20.8085 10.2562 21.2729 10.0802 21.65 9.79453L21.65 14.3062ZM9.04999 10.2562H9.94999V11.1562H9.04999V10.2562ZM14.9 9.3562H13.1V8.45619H14.9V9.3562ZM18.05 10.2562H18.95V11.1562H18.05V10.2562ZM20.3 24.7817L14 26.8818L7.69999 24.7817V18.9913L13.8874 20.5914C13.9243 20.6009 13.9621 20.6059 13.9999 20.6059C14.0376 20.6059 14.0754 20.6009 14.1124 20.5914L20.2997 18.9913L20.3 24.7817ZM14 19.6913L2.74691 16.7811L6.12371 15.9077C6.32942 16.1102 6.5729 16.2727 6.84329 16.3846C6.89332 16.4053 6.94675 16.4157 6.99758 16.4328C7.08316 16.4611 7.16673 16.4931 7.25633 16.5112C7.40077 16.5405 7.54943 16.5562 7.7001 16.5562H20.3001C20.4508 16.5562 20.5994 16.5405 20.7439 16.5112C20.8335 16.4931 20.917 16.4607 21.0026 16.4328C21.0538 16.4157 21.1075 16.4053 21.1569 16.3846C21.4273 16.2725 21.6712 16.1102 21.8765 15.9077L25.2533 16.7811L14 19.6913Z" fill="white"/>
</g>
<defs>
<clipPath id="clip0_3_457">
<rect width="28" height="29" fill="white" transform="translate(0 0.356201)"/>
</clipPath>
</defs>
</svg>
