<svg width="30" height="22" viewBox="0 0 30 22" fill="none" xmlns="http://www.w3.org/2000/svg">
<path d="M23.269 8.14269C25.0632 8.14269 26.5235 6.68258 26.5235 4.88824C26.5235 3.09405 25.0634 1.63379 23.269 1.63379C21.4748 1.63379 20.0146 3.0939 20.0146 4.88824C20.0146 6.68263 21.4747 8.14269 23.269 8.14269ZM23.269 2.49789C24.5881 2.49789 25.6595 3.56925 25.6595 4.88829C25.6595 6.20733 24.5881 7.27869 23.269 7.27869C21.95 7.27869 20.8786 6.20733 20.8786 4.88829C20.8786 3.56925 21.95 2.49789 23.269 2.49789Z" fill="white" stroke="white"/>
<path d="M23.2692 9.34686C22.0855 9.34686 20.9306 9.75588 20.0119 10.4988C19.8275 10.6484 19.7988 10.922 19.9486 11.1064C20.0983 11.2909 20.3719 11.3224 20.5563 11.1697C21.3309 10.5419 22.2699 10.2107 23.2693 10.2107C25.6511 10.2107 27.5893 12.1489 27.5893 14.5307L27.5891 19.2627C27.5891 19.5018 27.7822 19.6946 28.021 19.6946C28.2601 19.6946 28.453 19.5016 28.453 19.2627V14.5281C28.453 11.6712 26.126 9.34668 23.269 9.34668L23.2692 9.34686Z" fill="white" stroke="white"/>
<path d="M6.73199 8.14269C8.52618 8.14269 9.98644 6.68258 9.98644 4.88824C9.98644 3.09405 8.52633 1.63379 6.73199 1.63379C4.9378 1.63379 3.47754 3.0939 3.47754 4.88824C3.47774 6.68263 4.93785 8.14269 6.73199 8.14269ZM6.73199 2.49789C8.05103 2.49789 9.12239 3.56925 9.12239 4.88829C9.12239 6.20733 8.05103 7.27869 6.73199 7.27869C5.41295 7.27869 4.34159 6.20733 4.34159 4.88829C4.34159 3.56925 5.41295 2.49789 6.73199 2.49789Z" fill="white" stroke="white"/>
<path d="M10.0524 11.1033C10.2021 10.9189 10.1734 10.6455 9.98914 10.4957C9.07047 9.75256 7.91554 9.34375 6.73185 9.34375C3.87494 9.34375 1.54785 11.6679 1.54785 14.5278V19.2624C1.54785 19.5015 1.74091 19.6943 1.97977 19.6943C2.21883 19.6943 2.41169 19.5013 2.41169 19.2624V14.5278C2.41169 12.146 4.34993 10.2078 6.73169 10.2078C7.73115 10.2078 8.66993 10.539 9.44476 11.1668C9.63199 11.3195 9.90259 11.2905 10.0524 11.1033L10.0524 11.1033Z" fill="white" stroke="white"/>
<path d="M15.0005 9.61437C16.7947 9.61437 18.255 8.15426 18.255 6.35992C18.255 4.56573 16.7947 3.10547 15.0005 3.10547C13.2064 3.10547 11.7461 4.56558 11.7461 6.35992C11.7461 8.15411 13.2064 9.61437 15.0005 9.61437ZM15.0005 3.96957C16.3196 3.96957 17.3909 5.04093 17.3909 6.35997C17.3909 7.67901 16.3196 8.75037 15.0005 8.75037C13.6815 8.75037 12.6101 7.67901 12.6101 6.35997C12.6101 5.04093 13.6815 3.96957 15.0005 3.96957Z" fill="white" stroke="white"/>
<path d="M15.0004 10.8184C12.1435 10.8184 9.81641 13.1425 9.81641 16.0024V20.737C9.81641 20.976 10.0095 21.1689 10.2483 21.1689C10.4874 21.1689 10.6802 20.9758 10.6802 20.737L10.6804 16.0024C10.6804 13.6206 12.6187 11.6824 15.0004 11.6824C17.3822 11.6824 19.3204 13.6206 19.3204 16.0024V20.737C19.3204 20.976 19.5135 21.1689 19.7523 21.1689C19.9914 21.1689 20.1843 20.9758 20.1843 20.737L20.1845 16.0024C20.1845 13.1425 17.8573 10.8184 15.0005 10.8184H15.0004Z" fill="white" stroke="white"/>
</svg>
