<svg width="26" height="22" viewBox="0 0 26 22" fill="none" xmlns="http://www.w3.org/2000/svg">
<path d="M21.9721 2.96924H19.2271H14.8874H13.8862C13.6668 2.96924 13.453 3.1633 13.4643 3.39111C13.4755 3.61893 13.6499 3.81299 13.8862 3.81299H16.6312H20.9708H21.9721C22.1915 3.81299 22.4052 3.61893 22.394 3.39111C22.3827 3.1633 22.2084 2.96924 21.9721 2.96924Z" fill="white"/>
<path d="M12.1138 2.96918H9.36884H5.02914H4.02788C3.8085 2.96918 3.59475 3.16324 3.606 3.39105C3.61725 3.61886 3.79163 3.81292 4.02788 3.81292H6.77288H11.1126H12.1138C12.3332 3.81292 12.547 3.61886 12.5357 3.39105C12.5245 3.16324 12.3501 2.96918 12.1138 2.96918Z" fill="white"/>
<path d="M9.15512 11.1509C8.96949 11.39 8.767 11.6178 8.54482 11.8231C8.43795 11.9244 8.32545 12.02 8.21013 12.11C8.25795 12.0734 8.2017 12.1156 8.19607 12.1212C8.16232 12.1466 8.12857 12.1719 8.09482 12.1944C8.02732 12.2422 7.95701 12.29 7.88669 12.335C7.76857 12.4109 7.64763 12.4812 7.52388 12.5487C7.46201 12.5825 7.40013 12.6134 7.33544 12.6444C7.3045 12.6584 7.27076 12.6753 7.23982 12.6894C7.22575 12.695 7.102 12.7484 7.16669 12.7231C6.89106 12.8384 6.60417 12.9256 6.31452 12.9903C5.78578 13.1056 5.09669 13.1225 4.57922 13.0325C3.96609 12.9256 3.48236 12.7456 2.97327 12.4475C2.40514 12.1156 1.9467 11.7022 1.51923 11.1481C1.42079 11.3872 1.31954 11.629 1.2211 11.8681H4.01393H8.44361H9.45891C9.67829 11.8681 9.89204 11.674 9.88078 11.4462C9.86953 11.2184 9.69516 11.0244 9.45891 11.0244H6.66609H2.2364H1.2211C1.05516 11.0244 0.897665 11.1312 0.835792 11.2831C0.765479 11.4547 0.813291 11.6037 0.922978 11.7443C1.72454 12.7822 2.89737 13.5415 4.1855 13.8115C5.51579 14.0899 6.91923 13.8734 8.09766 13.1956C8.73892 12.8271 9.30705 12.3293 9.75705 11.7443C9.89486 11.5643 9.93142 11.3224 9.75705 11.148C9.60517 11.0046 9.2958 10.968 9.15518 11.1509L9.15512 11.1509Z" fill="white"/>
<path d="M8.88524 11.3363C8.53086 10.4279 8.1765 9.51665 7.8221 8.60822C7.2568 7.15979 6.69428 5.71419 6.12897 4.2657C5.9996 3.93664 5.87303 3.60757 5.74366 3.27853C5.58897 2.87916 5.08553 2.87916 4.93083 3.27853C4.57646 4.18697 4.22209 5.09823 3.8677 6.00666C3.29957 7.45509 2.73426 8.90352 2.16896 10.3492C2.03959 10.6782 1.91302 11.0073 1.78365 11.3363C1.70209 11.5417 1.87084 11.8088 2.07896 11.8567C2.32084 11.9129 2.51209 11.7835 2.59927 11.5613C2.95364 10.6529 3.308 9.74164 3.6624 8.83321C4.2277 7.38478 4.79023 5.93918 5.35553 4.49069C5.4849 4.16163 5.61147 3.83256 5.74084 3.50352H4.92801C5.28239 4.41196 5.63675 5.32322 5.99114 6.23165C6.55645 7.68008 7.12175 9.12568 7.68428 10.5742C7.81365 10.9032 7.94022 11.2323 8.06959 11.5613C8.15115 11.7723 8.35365 11.9213 8.58989 11.8567C8.79239 11.8004 8.96677 11.5501 8.88521 11.3363H8.88524Z" fill="white"/>
<path d="M24.4862 11.151C24.3006 11.3901 24.0981 11.6179 23.8759 11.8232C23.769 11.9244 23.6565 12.02 23.5412 12.11C23.589 12.0735 23.5328 12.1157 23.5271 12.1213C23.4934 12.1466 23.4596 12.1719 23.4259 12.1944C23.3584 12.2422 23.2881 12.2901 23.2178 12.3351C23.0996 12.411 22.9787 12.4813 22.8549 12.5488C22.7931 12.5825 22.7312 12.6135 22.6665 12.6444C22.6356 12.6585 22.6018 12.6754 22.5709 12.6894C22.5568 12.695 22.4331 12.7485 22.4977 12.7232C22.2221 12.8385 21.9352 12.9257 21.6456 12.9904C21.1168 13.1057 20.4278 13.1225 19.9103 13.0325C19.2971 12.9257 18.8134 12.7457 18.3043 12.4475C17.7362 12.1157 17.2778 11.7022 16.8503 11.1482C16.7518 11.3872 16.6506 11.6291 16.5522 11.8682H19.345H23.7747H24.79C25.0093 11.8682 25.2231 11.6741 25.2118 11.4463C25.2006 11.2185 25.0262 11.0244 24.79 11.0244H21.9972H17.5675H16.5522C16.3862 11.0244 16.2287 11.1313 16.1668 11.2832C16.0965 11.4547 16.1443 11.6038 16.254 11.7444C17.0556 12.7822 18.2284 13.5416 19.5166 13.8116C20.8469 14.09 22.2503 13.8734 23.4287 13.1956C24.07 12.8272 24.6381 12.3294 25.0881 11.7444C25.2259 11.5644 25.2625 11.3225 25.0881 11.1481C24.9362 11.0047 24.6269 10.9681 24.4862 11.1509L24.4862 11.151Z" fill="white"/>
<path d="M24.2163 11.3363C23.8619 10.4279 23.5076 9.51665 23.1532 8.60822C22.5879 7.15979 22.0253 5.71419 21.46 4.2657C21.3307 3.93664 21.2041 3.60757 21.0747 3.27853C20.92 2.87916 20.4166 2.87916 20.2619 3.27853C19.9075 4.18697 19.5532 5.09823 19.1988 6.00666C18.6306 7.45509 18.0653 8.90352 17.5 10.3492C17.3706 10.6782 17.2441 11.0073 17.1147 11.3363C17.0331 11.5417 17.2019 11.8088 17.41 11.8567C17.6519 11.9129 17.8431 11.7835 17.9303 11.5613C18.2847 10.6529 18.6391 9.74164 18.9935 8.83321C19.5588 7.38478 20.1213 5.93918 20.6866 4.49069C20.816 4.16163 20.9425 3.83256 21.0719 3.50352H20.2591C20.6134 4.41196 20.9678 5.32322 21.3222 6.23165C21.8875 7.68008 22.45 9.12568 23.0153 10.5742C23.1447 10.9032 23.2713 11.2323 23.4007 11.5613C23.4822 11.7723 23.6847 11.9213 23.921 11.8567C24.1235 11.8004 24.2978 11.5501 24.2163 11.3363H24.2163Z" fill="white"/>
<path d="M13.4217 17.8613V16.5029V13.2685V9.34508V5.95321C13.4217 5.40478 13.4385 4.85351 13.4217 4.30225V4.27975C13.4217 4.06038 13.2276 3.84663 12.9998 3.85788C12.772 3.86913 12.5779 4.0435 12.5779 4.27975V5.63819V8.87258V12.796V16.1879C12.5779 16.7363 12.561 17.2876 12.5779 17.8388V17.8613C12.5779 18.0807 12.772 18.2945 12.9998 18.2832C13.2276 18.272 13.4217 18.0976 13.4217 17.8613Z" fill="white"/>
<path d="M13.4219 2.50529V1.59125C13.4219 1.37187 13.2278 1.15812 13 1.16937C12.7722 1.18062 12.5781 1.355 12.5781 1.59125V2.50529C12.5781 2.72466 12.7722 2.93842 13 2.92717C13.2278 2.91873 13.4219 2.74154 13.4219 2.50529Z" fill="white"/>
<path d="M16.4513 19.9289H14.1169H10.3987H9.54657C9.6872 20.0695 9.82783 20.2101 9.96845 20.3508V19.4367V19.2736V19.2427C9.96845 19.2117 9.96845 19.1949 9.97126 19.1639C9.97407 19.1386 9.97407 19.1133 9.97688 19.088C9.97126 19.1358 9.97126 19.1358 9.9797 19.088C9.99657 19.0261 10.0134 18.967 10.0275 18.9052C10.0472 18.832 10.0331 18.8827 10.0247 18.9024C10.0388 18.8686 10.0556 18.8349 10.0725 18.8039C10.1006 18.7505 10.1344 18.6999 10.1709 18.6492C10.1175 18.7252 10.1878 18.6295 10.1963 18.6211C10.2216 18.593 10.2469 18.5677 10.2722 18.5424C10.2975 18.517 10.3256 18.4917 10.3538 18.4692C10.2891 18.5199 10.3538 18.4692 10.3706 18.4608C10.4297 18.4242 10.486 18.3905 10.5478 18.3624C10.621 18.3258 10.5647 18.3567 10.5506 18.3624C10.5872 18.3511 10.621 18.337 10.6575 18.3286C10.6941 18.3174 10.7306 18.3117 10.7672 18.3033C10.8544 18.2808 10.7081 18.3005 10.8066 18.2977C10.8741 18.2949 10.9416 18.292 11.0091 18.292H11.7122H14.0185H14.8735H15.0507C15.0957 18.292 15.1379 18.2949 15.1829 18.2977C15.2672 18.3033 15.2025 18.3005 15.1857 18.2977C15.2222 18.3033 15.2588 18.3117 15.2982 18.3202C15.3347 18.3286 15.3685 18.3427 15.405 18.3511C15.4894 18.3736 15.3572 18.323 15.4416 18.3652C15.5091 18.3989 15.571 18.4355 15.6329 18.4749C15.7313 18.5339 15.5794 18.4214 15.6638 18.4974C15.6919 18.5227 15.7172 18.5452 15.7454 18.5705C15.7707 18.5958 15.796 18.6239 15.8185 18.652C15.8832 18.7224 15.796 18.6099 15.841 18.683C15.8832 18.7505 15.9254 18.818 15.9591 18.8911C15.9872 18.953 15.9338 18.7983 15.9647 18.9108C15.976 18.953 15.9901 18.9952 16.0013 19.0373C16.0097 19.0683 16.0154 19.0992 16.021 19.1302C16.0041 19.0345 16.0238 19.192 16.0238 19.2089V19.3467V20.3564C16.0238 20.5758 16.2179 20.7895 16.4457 20.7783C16.6735 20.767 16.8676 20.5927 16.8676 20.3564V19.4002C16.8676 18.8658 16.7297 18.3623 16.3388 17.9742C15.9873 17.6226 15.5119 17.4482 15.0169 17.4455H14.3195H11.9204C11.2932 17.4455 10.5873 17.3611 10.022 17.6845C9.4398 18.0192 9.11914 18.6408 9.11914 19.3017V20.3564C9.11914 20.5842 9.3132 20.7783 9.54102 20.7783H11.8754H15.5936H16.4457C16.6651 20.7783 16.8789 20.5842 16.8676 20.3564C16.8648 20.1229 16.6904 19.9289 16.4514 19.9289L16.4513 19.9289Z" fill="white"/>
<path d="M13.4639 3.39164C13.4639 3.41695 13.4639 3.44508 13.4611 3.47039C13.4696 3.42257 13.4668 3.42257 13.4583 3.4732C13.4527 3.49007 13.4021 3.63351 13.4414 3.54914C13.4218 3.59414 13.3964 3.63633 13.3683 3.67851C13.4161 3.60539 13.3317 3.71789 13.3149 3.73195C13.298 3.74883 13.2783 3.7657 13.2586 3.77976C13.2952 3.75164 13.2924 3.75164 13.253 3.77695C13.2361 3.78539 13.1011 3.84445 13.1855 3.81633C13.1489 3.82758 13.1124 3.83601 13.0758 3.84726C13.0252 3.8557 13.0252 3.85851 13.073 3.85008C13.0477 3.85289 13.0196 3.85289 12.9942 3.85289C12.9689 3.85289 12.9408 3.85289 12.9155 3.85008C12.9633 3.85851 12.9633 3.8557 12.9127 3.84726C12.8958 3.84164 12.7524 3.79101 12.8367 3.83039C12.7917 3.8107 12.7496 3.78539 12.7074 3.75726C12.7805 3.80508 12.668 3.7207 12.6539 3.70382C12.6342 3.68414 12.5892 3.61664 12.6258 3.6757C12.6005 3.63351 12.5724 3.59132 12.5527 3.54632C12.5892 3.6307 12.5414 3.48726 12.5358 3.47038C12.5274 3.41976 12.5246 3.41976 12.533 3.46757C12.5302 3.44226 12.5302 3.41413 12.5302 3.38882C12.5302 3.36352 12.5302 3.33539 12.533 3.31008C12.5246 3.35789 12.5274 3.35789 12.5358 3.30726C12.5414 3.29039 12.5921 3.14695 12.5527 3.23132C12.5696 3.19195 12.5921 3.15538 12.6146 3.11882C12.6314 3.09351 12.6286 3.09914 12.6033 3.13007C12.6174 3.11039 12.6342 3.09351 12.6511 3.07382C12.6652 3.05695 12.7805 2.97538 12.7046 3.02038C12.7467 2.99507 12.7889 2.96694 12.8339 2.94726C12.7496 2.98382 12.893 2.93601 12.9099 2.93038C12.9605 2.92194 12.9605 2.91913 12.9127 2.92757C12.938 2.92476 12.9661 2.92476 12.9914 2.92476C13.0167 2.92476 13.0449 2.92476 13.0702 2.92757C13.0224 2.91913 13.0224 2.92194 13.073 2.93038C13.1096 2.94163 13.1461 2.95007 13.1827 2.96132C13.0983 2.93319 13.2305 2.99226 13.2502 3.00069C13.2896 3.02882 13.2924 3.02882 13.2558 2.99788C13.2755 3.01476 13.2924 3.02882 13.3121 3.04569C13.3289 3.05976 13.4105 3.17507 13.3655 3.09913C13.3908 3.14132 13.4189 3.18351 13.4386 3.22851C13.4021 3.14413 13.4499 3.28757 13.4555 3.30445C13.4639 3.35507 13.4667 3.35507 13.4583 3.30726C13.4639 3.34101 13.4639 3.36632 13.4639 3.39163C13.4696 3.61101 13.6552 3.82476 13.8858 3.81351C14.1108 3.80226 14.3133 3.62788 14.3077 3.39163C14.2964 2.83193 13.9561 2.3538 13.4302 2.15693C12.9436 1.97693 12.3446 2.13443 12.0127 2.53381C11.6584 2.96131 11.5852 3.57164 11.8721 4.05538C12.159 4.53913 12.7187 4.77255 13.2643 4.66851C13.8718 4.5532 14.2908 3.99351 14.3049 3.38881C14.3105 3.16943 14.108 2.95568 13.883 2.96693C13.6524 2.981 13.4696 3.15537 13.464 3.39162L13.4639 3.39164Z" fill="white"/>
</svg>
