<svg width="31" height="36" viewBox="0 0 31 36" fill="none" xmlns="http://www.w3.org/2000/svg">
<g clip-path="url(#clip0_3_376)">
<mask id="path-1-inside-1_3_376" fill="white">
<path d="M2.36844 18.3156C3.70532 15.9456 10.7024 15.0268 15.1697 15.0268C19.8994 15.0268 26.6341 15.937 27.971 18.3156L31 17.0963V16.667C29.3501 14.297 22.8945 12.5195 15.1782 12.5195C7.46193 12.5195 1.00631 14.2884 -0.643555 16.667V17.1651C-0.305024 17.3024 2.36851 18.3156 2.36851 18.3156L2.36844 18.3156Z"/>
</mask>
<path d="M2.36844 18.3156L-4.59944 14.3851L-10.6698 25.1466L1.63347 26.2817L2.36844 18.3156ZM27.971 18.3156L20.9969 22.2351L24.4397 28.3608L30.9582 25.7369L27.971 18.3156ZM31 17.0963L33.9872 24.5177L39 22.4999V17.0963H31ZM31 16.667H39V14.1565L37.5656 12.0962L31 16.667ZM-0.643555 16.667L-7.21701 12.1074L-8.64355 14.164V16.667H-0.643555ZM-0.643555 17.1651H-8.64355V22.5536L-3.64997 24.5787L-0.643555 17.1651ZM2.36851 18.3156L1.63353 26.2817L5.20358 10.8348L2.36851 18.3156ZM9.33633 22.246C8.8338 23.1369 8.25644 23.6354 7.99236 23.8382C7.71899 24.0482 7.564 24.1082 7.64162 24.0726C7.82042 23.9905 8.33438 23.804 9.25818 23.6077C11.0806 23.2204 13.3755 23.0268 15.1697 23.0268V7.02679C12.4966 7.02679 9.05929 7.29261 5.93213 7.95719C4.38114 8.28681 2.61596 8.77439 0.967214 9.53115C-0.451351 10.1823 -3.01567 11.5774 -4.59944 14.3851L9.33633 22.246ZM15.1697 23.0268C17.1191 23.0268 19.4013 23.2222 21.1616 23.6006C22.0544 23.7925 22.5269 23.9716 22.6691 24.0385C22.7272 24.0658 22.5633 23.9978 22.2879 23.7814C22.0174 23.5688 21.4728 23.0818 20.9969 22.2351L34.945 14.396C33.3991 11.6455 30.9258 10.24 29.4747 9.55798C27.8303 8.78518 26.073 8.29081 24.5238 7.95783C21.4 7.28643 17.95 7.02679 15.1697 7.02679V23.0268ZM30.9582 25.7369L33.9872 24.5177L28.0128 9.67497L24.9837 10.8942L30.9582 25.7369ZM39 17.0963V16.667H23V17.0963H39ZM37.5656 12.0962C36.1123 10.0085 34.1319 8.71689 32.6186 7.92702C30.9944 7.07929 29.2023 6.44723 27.4202 5.97327C23.8472 5.02298 19.5974 4.51953 15.1782 4.51953V20.5195C18.4754 20.5195 21.3115 20.9048 23.3078 21.4357C24.3104 21.7024 24.9238 21.9591 25.2152 22.1112C25.6175 22.3211 25.0628 22.1405 24.4344 21.2378L37.5656 12.0962ZM15.1782 4.51953C10.7625 4.51953 6.51314 5.02011 2.93901 5.96931C1.15639 6.44273 -0.637864 7.07493 -2.26449 7.92462C-3.78134 8.71697 -5.764 10.0126 -7.21701 12.1074L5.9299 21.2265C5.30182 22.132 4.74482 22.3146 5.14355 22.1063C5.43252 21.9554 6.04378 21.6994 7.04584 21.4333C9.04106 20.9034 11.8777 20.5195 15.1782 20.5195V4.51953ZM-8.64355 16.667V17.1651H7.35645V16.667H-8.64355ZM-3.64997 24.5787C-3.37628 24.6897 -2.50263 25.0226 -1.85598 25.2687C-1.49765 25.405 -1.15048 25.5369 -0.893184 25.6346C-0.764447 25.6834 -0.658006 25.7238 -0.583663 25.752C-0.546487 25.7661 -0.517326 25.7771 -0.497404 25.7847C-0.487443 25.7885 -0.479791 25.7914 -0.474601 25.7933C-0.472005 25.7943 -0.470026 25.7951 -0.46868 25.7956C-0.468008 25.7958 -0.467494 25.796 -0.467141 25.7962C-0.466964 25.7962 -0.466828 25.7963 -0.466732 25.7963C-0.466684 25.7963 -0.466643 25.7963 -0.466619 25.7964C-0.466588 25.7964 -0.466567 25.7964 2.36851 18.3156C5.20358 10.8348 5.20358 10.8348 5.20357 10.8348C5.20355 10.8348 5.20353 10.8348 5.2035 10.8347C5.20343 10.8347 5.20332 10.8347 5.20318 10.8346C5.20288 10.8345 5.20243 10.8343 5.20181 10.8341C5.20059 10.8336 5.19873 10.8329 5.19625 10.832C5.1913 10.8301 5.1839 10.8273 5.1742 10.8236C5.15479 10.8163 5.12618 10.8054 5.08959 10.7916C5.01641 10.7638 4.91133 10.7239 4.78414 10.6757C4.52957 10.5791 4.18719 10.449 3.83483 10.3149C3.48154 10.1805 3.12231 10.0435 2.83263 9.9325C2.50014 9.80508 2.35802 9.74951 2.36286 9.75147L-3.64997 24.5787ZM3.10348 10.3494L3.10342 10.3494L1.63347 26.2817L1.63353 26.2817L3.10348 10.3494Z" fill="white" mask="url(#path-1-inside-1_3_376)"/>
<g filter="url(#filter0_d_3_376)">
<mask id="path-3-inside-2_3_376" fill="white">
<path d="M27.9367 19.32C26.5998 16.8898 19.8397 15.8853 15.1693 15.8853C10.8204 15.8853 3.781 16.8898 2.44419 19.32L-0.254822 18.2725V22.9609L2.37644 24C3.71331 21.63 8.93359 19.8525 15.1777 19.8525C21.4218 19.8525 26.6421 21.6214 27.9789 24L30.6102 22.9609V18.2641L27.9367 19.32Z"/>
</mask>
<path d="M27.9367 19.32L20.9273 23.176L24.323 29.3484L30.8753 26.7607L27.9367 19.32ZM2.44419 19.32L-0.450219 26.778L6.07829 29.3117L9.45361 23.1759L2.44419 19.32ZM-0.254822 18.2725L2.63958 10.8144L-8.25482 6.58642V18.2725H-0.254822ZM-0.254822 22.9609H-8.25482V28.403L-3.19314 30.4018L-0.254822 22.9609ZM2.37644 24L-0.561884 31.4408L5.92028 34.0006L9.34433 27.9304L2.37644 24ZM27.9789 24L21.0049 27.9195L24.4248 34.0046L30.9172 31.4408L27.9789 24ZM30.6102 22.9609L33.5485 30.4018L38.6102 28.403V22.9609H30.6102ZM30.6102 18.2641H38.6102V6.5033L27.6716 10.8234L30.6102 18.2641ZM34.946 15.4639C33.4345 12.7163 30.9984 11.2775 29.5384 10.5662C27.8943 9.76522 26.1338 9.24439 24.5765 8.89035C21.441 8.17755 17.9733 7.88525 15.1693 7.88525V23.8853C17.0356 23.8853 19.2832 24.0953 21.0296 24.4923C21.9132 24.6932 22.3853 24.8791 22.5307 24.9499C22.5905 24.9791 22.4339 24.9121 22.1687 24.6979C21.9082 24.4874 21.3841 24.0063 20.9273 23.176L34.946 15.4639ZM15.1693 7.88525C12.5006 7.88525 9.05629 8.18224 5.92399 8.88578C4.36746 9.23539 2.59769 9.74879 0.946818 10.5345C-0.484134 11.2156 -3.01666 12.649 -4.56524 15.4641L9.45361 23.1759C8.9712 24.0528 8.41401 24.5478 8.15791 24.7503C7.89337 24.9594 7.74433 25.0191 7.82294 24.9816C8.00383 24.8955 8.51636 24.7021 9.43039 24.4968C11.2392 24.0906 13.489 23.8853 15.1693 23.8853V7.88525ZM5.33859 11.8619L2.63958 10.8144L-3.14923 25.7305L-0.450219 26.778L5.33859 11.8619ZM-8.25482 18.2725V22.9609H7.74518V18.2725H-8.25482ZM-3.19314 30.4018L-0.561884 31.4408L5.31476 16.5591L2.6835 15.5201L-3.19314 30.4018ZM9.34433 27.9304C8.82898 28.8441 8.2831 29.1496 8.39921 29.0747C8.4622 29.0341 8.77779 28.8535 9.43543 28.6373C10.7523 28.2044 12.7564 27.8525 15.1777 27.8525V11.8525C11.3548 11.8525 7.62682 12.3894 4.43827 13.4377C1.71574 14.3328 -2.39565 16.1768 -4.59146 20.0695L9.34433 27.9304ZM15.1777 27.8525C17.6031 27.8525 19.6078 28.2033 20.9232 28.6352C21.5801 28.8508 21.8933 29.0305 21.9537 29.0695C22.0661 29.142 21.5191 28.8345 21.0049 27.9195L34.953 20.0804C32.7575 16.174 28.6389 14.328 25.9138 13.4334C22.7238 12.3861 18.9964 11.8525 15.1777 11.8525V27.8525ZM30.9172 31.4408L33.5485 30.4018L27.6719 15.5201L25.0406 16.5591L30.9172 31.4408ZM38.6102 22.9609V18.2641H22.6102V22.9609H38.6102ZM27.6716 10.8234L24.9981 11.8792L30.8753 26.7607L33.5488 25.7048L27.6716 10.8234Z" fill="white" mask="url(#path-3-inside-2_3_376)"/>
</g>
<path d="M14.3562 8.95581C14.3562 9.54374 13.8864 10.0205 13.3069 10.0205C12.7276 10.0205 12.2578 9.54373 12.2578 8.95581C12.2578 8.36763 12.7276 7.89111 13.3069 7.89111C13.8865 7.89111 14.3562 8.36765 14.3562 8.95581Z" fill="white"/>
<path d="M18.2077 8.95581C18.2077 9.54374 17.738 10.0205 17.1587 10.0205C16.5791 10.0205 16.1094 9.54373 16.1094 8.95581C16.1094 8.36763 16.5791 7.89111 17.1587 7.89111C17.738 7.89111 18.2077 8.36765 18.2077 8.95581Z" fill="white"/>
<path d="M18.8667 11.6264V11.3689C18.8667 10.7591 18.3844 10.2612 17.7753 10.2612H16.5484C15.9476 10.2612 15.457 10.7507 15.457 11.3689V11.4891C16.6329 11.4891 17.7668 11.5407 18.8666 11.6264H18.8667Z" fill="white"/>
<path d="M15.0083 11.4891V11.3689C15.0083 10.7591 14.526 10.2612 13.9169 10.2612H12.69C12.0892 10.2612 11.5986 10.7507 11.5986 11.3689V11.6178C12.6985 11.532 13.8406 11.4891 15.0082 11.4891H15.0083Z" fill="white"/>
<path d="M10.3217 9.35913C10.3217 9.9473 9.85196 10.4238 9.27266 10.4238C8.6931 10.4238 8.22357 9.94729 8.22357 9.35913C8.22357 8.77119 8.69312 8.29443 9.27266 8.29443C9.85198 8.29443 10.3217 8.77121 10.3217 9.35913Z" fill="white"/>
<path d="M11.1499 11.5577C11.1499 10.9566 10.6423 10.493 10.0585 10.5531L8.63708 10.699C8.12953 10.7505 7.74023 11.1885 7.74023 11.7036V11.9612C7.74023 12.0213 7.79949 12.0728 7.85874 12.0642C8.86558 11.8924 9.94017 11.7637 11.0571 11.6691C11.1076 11.6523 11.1498 11.6092 11.1498 11.5577H11.1499Z" fill="white"/>
<path d="M2.59719 11.094C2.59719 11.6819 2.12741 12.1587 1.54811 12.1587C0.968552 12.1587 0.499023 11.6819 0.499023 11.094C0.499023 10.5061 0.96857 10.0293 1.54811 10.0293C2.12743 10.0293 2.59719 10.5061 2.59719 11.094Z" fill="white"/>
<path d="M3.42675 13.1375C3.41825 13.1033 3.41825 13.0688 3.40975 13.0345C3.27448 12.442 2.63994 12.1071 2.05614 12.2789L1.17627 12.5364C0.499466 12.7338 0.0341797 13.3692 0.0341797 14.082V14.8891C0.812517 14.2365 1.97165 13.6356 3.4268 13.1375L3.42675 13.1375Z" fill="white"/>
<path d="M6.40481 10.012C6.40481 10.6001 5.93503 11.0766 5.35572 11.0766C4.77617 11.0766 4.30664 10.6001 4.30664 10.012C4.30664 9.42402 4.77619 8.94727 5.35572 8.94727C5.93504 8.94727 6.40481 9.42404 6.40481 10.012Z" fill="white"/>
<path d="M7.27637 12.1586C7.23411 11.9353 7.1241 11.6349 6.98034 11.4803C6.72656 11.2142 6.32879 11.1198 5.9735 11.1969L4.91589 11.4288C4.31509 11.5661 3.88379 12.1071 3.88379 12.7338L3.89229 12.9827C4.89889 12.6653 6.04128 12.3819 7.27638 12.1585L7.27637 12.1586Z" fill="white"/>
<path d="M22.2603 9.35913C22.2603 9.9473 21.7905 10.4238 21.2112 10.4238C20.6316 10.4238 20.1621 9.94729 20.1621 9.35913C20.1621 8.77119 20.6317 8.29443 21.2112 8.29443C21.7905 8.29443 22.2603 8.77121 22.2603 9.35913Z" fill="white"/>
<path d="M19.3242 11.5577C19.3242 10.9566 19.8318 10.493 20.4156 10.5531L21.837 10.699C22.3446 10.7505 22.7339 11.1885 22.7339 11.7036V11.9612C22.7339 12.0213 22.6746 12.0728 22.6154 12.0642C21.6085 11.8924 20.5339 11.7637 19.4171 11.6691C19.3665 11.6523 19.3243 11.6092 19.3243 11.5577H19.3242Z" fill="white"/>
<path d="M29.9761 11.094C29.9761 11.6819 29.5063 12.1587 28.927 12.1587C28.3477 12.1587 27.8779 11.6819 27.8779 11.094C27.8779 10.5061 28.3477 10.0293 28.927 10.0293C29.5063 10.0293 29.9761 10.5061 29.9761 11.094Z" fill="white"/>
<path d="M27.0567 13.1375C27.0652 13.1033 27.0652 13.0688 27.0737 13.0345C27.209 12.442 27.8435 12.1071 28.4273 12.2789L29.3072 12.5364C29.984 12.7338 30.4493 13.3692 30.4493 14.082V14.8891C29.6626 14.2365 28.5036 13.6356 27.0566 13.1375L27.0567 13.1375Z" fill="white"/>
<path d="M26.1685 10.012C26.1685 10.6001 25.6987 11.0766 25.1194 11.0766C24.5401 11.0766 24.0703 10.6001 24.0703 10.012C24.0703 9.42402 24.5401 8.94727 25.1194 8.94727C25.6987 8.94727 26.1685 9.42404 26.1685 10.012Z" fill="white"/>
<path d="M23.1983 12.1586C23.2405 11.9353 23.3505 11.6349 23.4943 11.4803C23.7481 11.2142 24.1458 11.1198 24.5011 11.1969L25.5587 11.4288C26.1595 11.5661 26.5908 12.0987 26.5908 12.7255L26.5823 12.9744C25.5757 12.6653 24.4336 12.3819 23.1982 12.1586L23.1983 12.1586Z" fill="white"/>
</g>
<defs>
<filter id="filter0_d_3_376" x="-4.25482" y="15.8853" width="38.865" height="16.1147" filterUnits="userSpaceOnUse" color-interpolation-filters="sRGB">
<feFlood flood-opacity="0" result="BackgroundImageFix"/>
<feColorMatrix in="SourceAlpha" type="matrix" values="0 0 0 0 0 0 0 0 0 0 0 0 0 0 0 0 0 0 127 0" result="hardAlpha"/>
<feOffset dy="4"/>
<feGaussianBlur stdDeviation="2"/>
<feComposite in2="hardAlpha" operator="out"/>
<feColorMatrix type="matrix" values="0 0 0 0 0 0 0 0 0 0 0 0 0 0 0 0 0 0 0.25 0"/>
<feBlend mode="normal" in2="BackgroundImageFix" result="effect1_dropShadow_3_376"/>
<feBlend mode="normal" in="SourceGraphic" in2="effect1_dropShadow_3_376" result="shape"/>
</filter>
<clipPath id="clip0_3_376">
<rect width="31" height="36" fill="white"/>
</clipPath>
</defs>
</svg>
