<svg width="28" height="28" viewBox="0 0 28 28" fill="none" xmlns="http://www.w3.org/2000/svg">
<g clip-path="url(#clip0_3_434)">
<path d="M27.045 19.2906C26.9156 18.8072 26.6059 18.4034 26.173 18.1535L15.26 11.8525C15.341 11.6819 15.3622 11.4885 15.3139 11.3044C15.2585 11.0995 15.1254 10.9248 14.9413 10.8188L13.4059 9.93266L13.7967 9.25515L13.9704 9.35555C14.0931 9.42657 14.2311 9.46264 14.3701 9.46264C14.4393 9.46264 14.5092 9.45372 14.5776 9.4355C14.7825 9.38046 14.9573 9.24696 15.0629 9.0629L16.136 7.20366C16.3569 6.8214 16.226 6.33242 15.8434 6.11188L8.5357 1.8925C8.15418 1.67162 7.66408 1.80251 7.44354 2.18514L6.37003 4.044C6.26405 4.22732 6.23505 4.44597 6.29008 4.65049C6.34549 4.85537 6.47862 5.03015 6.66268 5.13613L6.83597 5.23653L3.44544 11.1089L3.2729 11.0085C2.89138 10.7872 2.4009 10.9185 2.18074 11.3011L1.10723 13.1596C1.00125 13.3429 0.972248 13.5616 1.02729 13.7661C1.08269 13.971 1.21582 14.145 1.39988 14.2517L8.70794 18.4715C8.83065 18.5425 8.96861 18.5786 9.10767 18.5786C9.17684 18.5786 9.24674 18.5696 9.31517 18.5514C9.52005 18.496 9.69483 18.3629 9.80044 18.1788L10.8739 16.3196C11.0948 15.937 10.9639 15.448 10.5813 15.2274L10.4076 15.127L10.7988 14.4495L12.3342 15.3356C12.4599 15.4085 12.5975 15.4427 12.7336 15.4427C12.9891 15.4427 13.2337 15.3163 13.3866 15.0951L24.3006 21.3958C24.5858 21.5605 24.91 21.6475 25.2376 21.6475C25.9055 21.6475 26.5272 21.2883 26.8596 20.7108C27.1084 20.278 27.1746 19.7737 27.0456 19.2907L27.045 19.2906ZM8.42792 3.67689L14.3504 7.09683L14.0771 7.57057L12.229 6.50373L8.32719 4.25106C8.32608 4.25069 8.32496 4.25069 8.32385 4.24994L8.15391 4.1514L8.42792 3.67689ZM8.81465 16.6871L2.89138 13.2667L3.16544 12.793L5.98594 14.4217L8.91468 16.1125C8.9158 16.1129 8.91691 16.1129 8.91729 16.1136L9.08834 16.2129L8.81465 16.6871ZM9.86587 12.8659L9.81307 12.957L9.02214 14.3276L4.83027 11.9079L8.22003 6.03599L12.4111 8.45563L9.86587 12.8659ZM12.4406 13.5505L11.5976 13.0644L12.6068 11.3182L13.4491 11.8042L12.4406 13.5505ZM25.4727 19.9113C25.399 20.0389 25.2295 20.0857 25.0989 20.011L14.1926 13.7141L14.4655 13.2407L25.3728 19.538C25.4576 19.5871 25.4885 19.6626 25.4993 19.7038C25.5104 19.7444 25.5223 19.8258 25.4725 19.9113L25.4727 19.9113ZM15.3964 23.9834H6.04983C4.33376 23.9834 2.93812 25.379 2.93812 27.0951C2.93812 27.5365 3.29621 27.8946 3.7376 27.8946H17.7073C18.1487 27.8946 18.5068 27.5365 18.5068 27.0951C18.5079 25.3797 17.1116 23.9834 15.3966 23.9834H15.3964ZM4.76699 26.2956C5.03472 25.868 5.50995 25.5828 6.05021 25.5828H15.3964C15.937 25.5828 16.4115 25.868 16.6789 26.2956H4.76699ZM11.5228 22.3154V20.5829C11.5228 20.1415 11.1647 19.7834 10.7233 19.7834C10.282 19.7834 9.92387 20.1415 9.92387 20.5829V22.3154C9.92387 22.7567 10.282 23.1148 10.7233 23.1148C11.1647 23.1152 11.5228 22.7575 11.5228 22.3154ZM14.4519 22.8809L15.5214 21.8115C15.8337 21.4992 15.8337 20.9931 15.5214 20.6807C15.209 20.3684 14.7029 20.3684 14.3905 20.6807L13.3211 21.7501C13.0088 22.0625 13.0088 22.5686 13.3211 22.8809C13.4773 23.0371 13.6822 23.1148 13.8867 23.1148C14.0912 23.1152 14.2958 23.0371 14.4519 22.8809H14.4519ZM7.55894 23.1152C7.76383 23.1152 7.96835 23.0375 8.12453 22.8817C8.43688 22.5693 8.43688 22.0632 8.1249 21.7505L7.05653 20.6811C6.74418 20.3687 6.23771 20.3691 5.92534 20.6807C5.61299 20.9931 5.61299 21.4992 5.92497 21.8119L6.99333 22.8813C7.14951 23.0371 7.35478 23.1152 7.55892 23.1152H7.55894Z" fill="white"/>
</g>
<defs>
<clipPath id="clip0_3_434">
<rect width="28" height="27" fill="white" transform="translate(0 0.785156)"/>
</clipPath>
</defs>
</svg>
