<svg width="30" height="31" viewBox="0 0 30 31" fill="none" xmlns="http://www.w3.org/2000/svg">
<g clip-path="url(#clip0_3_407)">
<path d="M28.7452 26.055H27.6543V24.746C27.6543 24.4842 27.4798 24.3097 27.218 24.3097H25.9961V23.0006C25.9961 22.7389 25.8216 22.5643 25.5598 22.5643L25.4724 22.5641V11.8731H25.5596C25.8214 11.8731 25.9959 11.6986 25.9959 11.4368V10.1278L27.2178 10.1276C27.4795 10.1276 27.6541 9.95301 27.6541 9.69124V7.94586H28.745C28.9631 7.94586 29.1377 7.81487 29.1813 7.5967C29.2249 7.37853 29.1377 7.20396 28.9196 7.11677L15.1742 0.833233C15.0433 0.789639 14.9125 0.789639 14.8251 0.833233L1.07978 7.11677C0.905206 7.20396 0.774424 7.42213 0.81802 7.5967C0.861614 7.81487 1.03619 7.98945 1.25436 7.98945H2.34521V9.73483C2.34521 9.99659 2.51979 10.1712 2.78155 10.1712H4.00339V11.4802C4.00339 11.7419 4.17797 11.9165 4.43973 11.9165L4.52712 11.9167V22.6077H4.43993C4.17817 22.6077 4.00359 22.7823 4.00359 23.044V24.353L2.78175 24.3532C2.51999 24.3532 2.34541 24.5278 2.34541 24.7896V26.0986H1.25435C0.992594 26.0986 0.818015 26.2732 0.818015 26.5349V28.7604C0.818015 29.0222 0.992589 29.1967 1.25435 29.1967H28.7455C29.0073 29.1967 29.1818 29.0222 29.1818 28.7604V26.5349C29.1818 26.2296 29.0073 26.055 28.7455 26.055H28.7452ZM20.2795 24.3095V23.0005C20.2795 22.7387 20.1049 22.5641 19.8432 22.5641H19.756L19.7558 11.8731H19.843C20.1047 11.8731 20.2793 11.6986 20.2793 11.4368V10.1278H21.1956V11.4368C21.1956 11.6986 21.3701 11.8731 21.6319 11.8731H21.7191V22.5641H21.6319C21.3702 22.5641 21.1956 22.7387 21.1956 23.0005V24.3095H20.2795ZM14.5195 24.3095V23.0005C14.5195 22.7387 14.3449 22.5641 14.0832 22.5641H13.996L13.9958 11.8731H14.083C14.3447 11.8731 14.5193 11.6986 14.5193 11.4368V10.1278H15.4356V11.4368C15.4356 11.6986 15.6101 11.8731 15.8719 11.8731H15.9591V22.5641H15.8719C15.6102 22.5641 15.4356 22.7387 15.4356 23.0005V24.3095H14.5195ZM8.80324 24.3095V23.0005C8.80324 22.7387 8.62867 22.5641 8.3669 22.5641H8.27971L8.27951 11.8731H8.3667C8.62846 11.8731 8.80304 11.6986 8.80304 11.4368V10.1278H9.71929V11.4368C9.71929 11.6986 9.89386 11.8731 10.1556 11.8731H10.2428V22.5641H10.1556C9.89387 22.5641 9.71929 22.7387 9.71929 23.0005V24.3095H8.80324ZM13.1669 22.5641H11.1595V11.8731H13.1669V22.5641ZM13.6468 10.1713V11.044H10.5924V10.1713H13.6468ZM10.5924 23.4368H13.6468V24.3095H10.5922L10.5924 23.4368ZM18.8832 22.5641H16.8759V11.8732H18.8832V22.5641ZM19.4067 10.1714V11.0441H16.3523V10.1714H19.4067ZM16.3523 23.4369H19.4067V24.3096H16.3521L16.3523 23.4369ZM22.0686 23.4369H25.1232V24.3096H22.0686V23.4369ZM24.5997 22.5642H22.5924V11.8732H24.5997V22.5642ZM25.1232 11.0005H22.0688V10.1278H25.1234L25.1232 11.0005ZM14.9995 1.7058L26.7376 7.11659H3.26145L14.9995 1.7058ZM3.21774 7.98934H26.7813V9.29835C25.9522 9.29835 10.2866 9.25475 10.0685 9.29835H3.21774V7.98934ZM7.9305 10.1712V11.0439H4.8759V10.1712H7.9305ZM5.39944 11.873H7.40675V22.564H5.39944V11.873ZM4.8759 23.4367H7.93029V24.3094H4.87569L4.8759 23.4367ZM3.21774 25.1823H26.7813V26.055H3.21774V25.1823ZM28.3087 28.2804H1.69082V26.9276H28.3087V28.2804Z" fill="white"/>
</g>
<defs>
<clipPath id="clip0_3_407">
<rect width="30" height="30" fill="white" transform="translate(0 0.571045)"/>
</clipPath>
</defs>
</svg>
