<svg width="28" height="28" viewBox="0 0 28 28" fill="none" xmlns="http://www.w3.org/2000/svg">
<path d="M2.32227 19.704H15.4833V20.4779H2.32227V19.704Z" fill="white"/>
<path d="M2.32227 18.1566H15.4833V18.9305H2.32227V18.1566Z" fill="white"/>
<path d="M2.32227 16.6078H12.3865V17.3817H2.32227V16.6078Z" fill="white"/>
<path d="M2.32227 15.06H12.3865V15.8338H2.32227V15.06Z" fill="white"/>
<path d="M8.51601 8.0917H11.6128C11.7155 8.0917 11.814 8.05091 11.8866 7.97833C11.9591 7.90575 11.9999 7.80725 11.9999 7.7046V6.15619C11.9998 5.51245 11.6795 4.91091 11.1456 4.55128C11.4412 4.26303 11.6094 3.86848 11.6128 3.45563C11.6163 3.04278 11.4545 2.64563 11.1639 2.35254C10.873 2.05928 10.4773 1.89443 10.0644 1.89443C9.65157 1.89443 9.25584 2.0593 8.96496 2.35254C8.67429 2.64563 8.51251 3.04278 8.51601 3.45563C8.5195 3.86848 8.68761 4.26301 8.98327 4.55128C8.44929 4.91091 8.12904 5.51249 8.12891 6.15619V7.7046C8.12891 7.80725 8.16969 7.90575 8.24227 7.97833C8.31485 8.05091 8.41336 8.0917 8.51601 8.0917ZM10.0644 2.67226C10.2697 2.67226 10.4667 2.75383 10.6119 2.899C10.7571 3.04416 10.8386 3.24117 10.8386 3.44647C10.8386 3.65177 10.7571 3.84878 10.6119 3.99394C10.4667 4.1391 10.2697 4.22067 10.0644 4.22067C9.85912 4.22067 9.6621 4.1391 9.51694 3.99394C9.37178 3.84878 9.29021 3.65177 9.29021 3.44647C9.29021 3.24117 9.37178 3.04416 9.51694 2.899C9.6621 2.75383 9.85912 2.67226 10.0644 2.67226ZM8.90311 6.15619C8.90311 5.74126 9.12448 5.35796 9.48376 5.15043C9.84304 4.94305 10.2858 4.94305 10.6451 5.15043C11.0043 5.35798 11.2257 5.74126 11.2257 6.15619V7.31749H8.90311V6.15619Z" fill="white"/>
<path d="M6.5791 8.86562H13.5465V9.63983H6.5791V8.86562Z" fill="white"/>
<path d="M6.5791 10.4145H13.5465V11.1886H6.5791V10.4145Z" fill="white"/>
<path d="M22.0659 8.47963C22.0659 7.76091 21.7804 7.07173 21.2722 6.56363C20.7641 6.0554 20.075 5.76992 19.3562 5.76992C18.6374 5.76992 17.9483 6.05541 17.4402 6.56363C16.932 7.07169 16.6465 7.76086 16.6465 8.47963C16.6465 9.19841 16.932 9.88754 17.4402 10.3956C17.9483 10.9039 18.6374 11.1893 19.3562 11.1893C20.0746 11.1887 20.7634 10.903 21.2715 10.3949C21.7796 9.88686 22.0652 9.19801 22.0659 8.47963ZM19.3562 10.4151C18.8429 10.4151 18.3506 10.2112 17.9875 9.84834C17.6246 9.48526 17.4207 8.99291 17.4207 8.47963C17.4207 7.96636 17.6246 7.47405 17.9875 7.11093C18.3506 6.74802 18.8429 6.54412 19.3562 6.54412C19.8695 6.54412 20.3618 6.74805 20.7249 7.11093C21.0878 7.47401 21.2917 7.96636 21.2917 8.47963C21.2917 8.99291 21.0878 9.48522 20.7249 9.84834C20.3618 10.2112 19.8695 10.4151 19.3562 10.4151Z" fill="white"/>
<path d="M21.713 12.3002C22.1417 12.2043 22.5252 11.9655 22.8001 11.6228C23.0751 11.2801 23.2254 10.8541 23.2261 10.4146C23.2256 10.2919 23.2126 10.1696 23.1874 10.0497C23.6964 9.68865 23.999 9.10332 23.999 8.47931C23.999 7.8553 23.6964 7.26996 23.1874 6.90913C23.2126 6.78885 23.2258 6.6665 23.2261 6.54363C23.2261 6.03036 23.0222 5.53805 22.6593 5.17493C22.2962 4.81202 21.8039 4.60812 21.2906 4.60812C21.1679 4.60881 21.0457 4.62177 20.9256 4.64683C20.566 4.13581 19.9798 3.83237 19.3551 3.83392V2.28551C19.3551 2.18286 19.3143 2.08435 19.2417 2.01177C19.1692 1.93919 19.0707 1.89841 18.968 1.89841H17.8067V0.737101C17.8067 0.63445 17.7659 0.535945 17.6933 0.463364C17.6207 0.390784 17.5222 0.349998 17.4196 0.349998H4.25812C4.15547 0.349998 4.05714 0.39061 3.98439 0.463019L0.113366 4.33404C0.0407851 4.40679 0 4.5053 0 4.60812V22.4148C0 22.5175 0.0407842 22.616 0.113366 22.6886C0.185947 22.7611 0.284451 22.8019 0.387102 22.8019H1.54841V23.9632C1.54841 24.0659 1.58919 24.1644 1.66177 24.237C1.73436 24.3095 1.83286 24.3503 1.93551 24.3503H18.968C19.0707 24.3503 19.1692 24.3096 19.2417 24.237C19.3143 24.1644 19.3551 24.0659 19.3551 23.9632V13.1244C19.3938 13.1244 19.4325 13.1197 19.4712 13.1175L20.5408 15.9704V15.9703C20.5918 16.1063 20.7146 16.2023 20.8589 16.2189C20.8738 16.2203 20.8887 16.2212 20.9035 16.2212C21.033 16.2212 21.1538 16.1565 21.2256 16.0489L21.8559 15.1027L23.5375 15.4392H23.5374C23.7 15.4715 23.865 15.3968 23.948 15.2534C24.0309 15.11 24.0135 14.9296 23.9043 14.8048L21.713 12.3002ZM18.5809 2.67264V3.99883C18.2729 4.13397 18.006 4.34757 17.8067 4.6182V2.67264H18.5809ZM3.87103 1.67153V4.22105H1.3215L3.87103 1.67153ZM0.774208 4.99526H4.25813C4.36078 4.99526 4.45928 4.95447 4.53186 4.88189C4.60444 4.80931 4.64523 4.7108 4.64523 4.60815V1.12423H17.0325V4.64686C16.5956 4.73655 16.203 4.97417 15.9208 5.3198C15.6387 5.66543 15.4844 6.09763 15.4841 6.54366C15.4841 6.66619 15.4964 6.78854 15.5209 6.90865C15.0121 7.26983 14.7099 7.85517 14.7099 8.479C14.7099 9.10287 15.0121 9.688 15.5209 10.0492C15.4964 10.1695 15.4841 10.292 15.4841 10.4147C15.4848 10.8541 15.6348 11.2801 15.9097 11.623C16.1847 11.9657 16.5681 12.2046 16.9969 12.3005L14.8054 14.8045C14.6964 14.9292 14.6788 15.1095 14.7619 15.2531C14.8448 15.3965 15.0099 15.4712 15.1725 15.4389L16.8542 15.1024L17.0325 15.3696V22.0277H0.774209L0.774208 4.99526ZM17.7098 14.9905L17.3549 14.4578C17.2672 14.3281 17.1105 14.2633 16.9569 14.2933L16.139 14.4566L17.8944 12.4506C18.0589 12.6442 18.2602 12.8031 18.4868 12.9182L17.7098 14.9905ZM2.32262 23.5762V22.802H17.4196C17.5222 22.802 17.6208 22.7612 17.6933 22.6886C17.7659 22.616 17.8067 22.5175 17.8067 22.4149V16.2212C17.8214 16.221 17.8362 16.2202 17.8508 16.2185C17.9951 16.2019 18.1179 16.106 18.1691 15.9699L18.5809 14.8702V23.5762L2.32262 23.5762ZM18.3132 11.6923C18.2486 11.5588 18.1133 11.4741 17.9649 11.4741C17.9182 11.4741 17.8721 11.4825 17.8285 11.4991C17.5489 11.6087 17.2375 11.6047 16.9606 11.4879C16.684 11.3711 16.4637 11.1509 16.347 10.8741C16.2303 10.5972 16.2264 10.2858 16.3359 10.0062C16.4068 9.81854 16.3228 9.60805 16.1424 9.52076C15.8783 9.3953 15.6716 9.17445 15.5643 8.90242C15.457 8.63041 15.457 8.32783 15.5643 8.05597C15.6717 7.78396 15.8783 7.56291 16.1424 7.43762C16.3228 7.35035 16.4068 7.13969 16.3359 6.95217C16.2267 6.67256 16.2309 6.36148 16.3477 6.08498C16.4643 5.8083 16.6843 5.58829 16.961 5.47167C17.2375 5.35485 17.5485 5.3507 17.8282 5.45992C18.0157 5.53061 18.226 5.44662 18.3133 5.26637C18.4384 5.00197 18.6594 4.79495 18.9314 4.68744C19.2036 4.57995 19.5064 4.57995 19.7784 4.68744C20.0506 4.79494 20.2716 5.00197 20.3968 5.26637C20.484 5.44662 20.6944 5.53061 20.8817 5.45992C21.1613 5.35019 21.4729 5.35399 21.7497 5.47064C22.0266 5.58729 22.2469 5.80745 22.3637 6.08429C22.4804 6.36097 22.4844 6.67256 22.3748 6.95216C22.3039 7.13966 22.3879 7.35032 22.5683 7.4376C22.8326 7.56289 23.0394 7.78375 23.1469 8.05577C23.2544 8.32778 23.2544 8.63054 23.1469 8.90258C23.0394 9.17458 22.8326 9.39546 22.5683 9.52075C22.3879 9.60802 22.3039 9.8185 22.3748 10.0062C22.4845 10.2858 22.4807 10.5974 22.3639 10.8742C22.2473 11.1512 22.0269 11.3714 21.7499 11.4882C21.4731 11.6049 21.1615 11.6087 20.8817 11.4988C20.6944 11.4281 20.484 11.5121 20.3968 11.6923C20.2717 11.9567 20.0506 12.1638 19.7784 12.2713C19.5064 12.3788 19.2037 12.3788 18.9314 12.2713C18.6594 12.1638 18.4384 11.9567 18.3133 11.6923L18.3132 11.6923ZM21.7554 14.2934C21.6017 14.264 21.4455 14.3286 21.3574 14.4579L21.0005 14.9905L20.2232 12.9179C20.4498 12.803 20.6511 12.644 20.8155 12.4503L22.5714 14.4567L21.7554 14.2934Z" fill="white"/>
<path d="M20.2135 7.07558L18.9361 8.67306L18.4678 8.20473L17.9199 8.75256L18.6941 9.52676C18.7665 9.59917 18.8649 9.63995 18.9673 9.64013H18.9889C19.0989 9.63391 19.201 9.58137 19.2696 9.49531L20.818 7.5598L20.2135 7.07558Z" fill="white"/>
<path d="M2.70931 14.2854H6.58033C6.68298 14.2854 6.78149 14.2446 6.85407 14.1721C6.92665 14.0995 6.96743 14.001 6.96743 13.8983V12.3499C6.96743 12.2473 6.92665 12.1488 6.85407 12.0762C6.78149 12.0036 6.68298 11.9628 6.58033 11.9628H2.70931C2.49554 11.9628 2.3222 12.1361 2.3222 12.3499V13.8983C2.3222 14.001 2.36299 14.0995 2.43557 14.1721C2.50815 14.2446 2.60666 14.2854 2.70931 14.2854ZM3.09641 12.737H6.19323V13.5112H3.09641V12.737Z" fill="white"/>
</svg>
