<svg width="32" height="26" viewBox="0 0 32 26" fill="none" xmlns="http://www.w3.org/2000/svg">
<g clip-path="url(#clip0_3_400)">
<path d="M29.825 20.1037V9.04534C29.825 8.94112 29.8066 8.84307 29.7637 8.72036L29.7331 8.64669C29.6964 8.56686 29.6472 8.49345 29.592 8.43825L29.5491 8.38922C29.4816 8.32172 29.4079 8.27269 29.3283 8.22982L15.5159 1.07221C15.2522 0.937191 14.9332 0.937191 14.6695 1.07221L0.857059 8.22982C0.550305 8.38922 0.360352 8.70214 0.360352 9.04559C0.360352 9.38905 0.550561 9.70197 0.857059 9.86137L4.6351 11.8179V18.0556C4.6351 18.3316 4.7578 18.5893 4.96624 18.761C5.18084 18.9389 5.45679 19.0064 5.72064 18.9574C5.77583 18.945 11.5718 17.9822 14.2707 23.4162C14.424 23.7291 14.7492 23.9252 15.0927 23.9252C15.4361 23.9252 15.7611 23.723 15.9146 23.4162C18.6194 17.9637 24.2248 18.9143 24.4647 18.9574C24.7283 19.0064 25.0045 18.9327 25.2191 18.761C25.4275 18.5831 25.5502 18.3256 25.5502 18.0556L25.5505 11.8179L27.9855 10.5544V20.0981C26.9061 20.4844 26.1702 21.5086 26.1702 22.6617C26.1702 24.1706 27.3969 25.3971 28.9055 25.3971C30.4144 25.3971 31.6409 24.1703 31.6409 22.6617C31.6409 21.5086 30.905 20.4906 29.8255 20.1043L29.825 20.1037ZM28.905 23.563C28.4145 23.563 28.0097 23.1644 28.0097 22.6676C28.0094 22.1707 28.4142 21.772 28.905 21.772C29.3956 21.772 29.8004 22.1707 29.8004 22.6674C29.8004 23.1641 29.4018 23.563 28.905 23.563ZM26.9054 9.04541L15.0926 15.1666L3.27978 9.04541L15.0926 2.92425L26.9054 9.04541ZM6.47547 12.7683L14.6694 17.0125C14.933 17.1475 15.2521 17.1475 15.5157 17.0125L23.7096 12.7683V17.0494C21.7654 16.9942 17.7296 17.3867 15.0925 21.1956C12.5964 17.5952 8.84276 17.0494 6.80069 17.0494C6.68415 17.0494 6.57377 17.0494 6.47571 17.0556L6.47547 12.7683Z" fill="white"/>
</g>
<defs>
<clipPath id="clip0_3_400">
<rect width="32" height="25" fill="white" transform="translate(0 0.7854)"/>
</clipPath>
</defs>
</svg>
