<svg width="21" height="29" viewBox="0 0 21 29" fill="none" xmlns="http://www.w3.org/2000/svg">
<g clip-path="url(#clip0_3_414)">
<path d="M0.45086 2.0852C0.154143 2.11312 -0.0724779 2.36303 -0.0710379 2.66114L-0.0800781 23.3786C-0.0800781 23.6966 0.177867 23.9546 0.495871 23.9546L2.79992 23.9725V26.8525C2.79992 27.1705 3.05787 27.4284 3.37587 27.4284H19.5039C19.8219 27.4284 20.0798 27.1705 20.0798 26.8525V6.11697C20.0798 5.79896 19.8219 5.54102 19.5039 5.54102H17.1998V2.66102C17.1998 2.34301 16.9419 2.08508 16.6239 2.08508H0.504613C0.486533 2.08427 0.468654 2.08427 0.450572 2.08508L0.45086 2.0852ZM1.08086 3.23709H16.0476V5.54114H3.3756C3.35772 5.54034 3.33964 5.54034 3.32156 5.54114C3.28178 5.54597 3.24261 5.55501 3.20464 5.56806C3.16065 5.58112 3.11826 5.5992 3.07868 5.62211C3.05337 5.63818 3.02926 5.65626 3.00657 5.67615C2.9911 5.6874 2.97603 5.69945 2.96157 5.71211V5.72115C2.94911 5.7326 2.93706 5.74465 2.92561 5.75711V5.76615C2.91315 5.7776 2.9011 5.78965 2.88965 5.80211C2.8575 5.85213 2.83319 5.90677 2.81773 5.96402C2.81371 5.9819 2.8107 5.99998 2.80869 6.01807V6.02711C2.80507 6.04197 2.80206 6.05704 2.79965 6.07211C2.79905 6.08697 2.79905 6.10204 2.79965 6.11711V22.8206L1.07155 22.8027L1.08059 3.23723L1.08086 3.23709ZM3.95181 6.69304H18.9278V26.2765H3.95181V23.4415V23.4417C3.95241 23.4267 3.95241 23.4116 3.95181 23.3965V6.69304ZM7.64181 11.3009C7.48913 11.308 7.34529 11.3755 7.24243 11.4886C7.13938 11.6017 7.08554 11.7511 7.09277 11.9038C7.0998 12.0567 7.1675 12.2003 7.2806 12.3034C7.3937 12.4062 7.54317 12.4601 7.69584 12.4529H15.1838C15.3379 12.4551 15.4866 12.3954 15.5965 12.2871C15.7062 12.1788 15.768 12.031 15.768 11.8769C15.768 11.7226 15.7062 11.5749 15.5965 11.4667C15.4866 11.3584 15.3379 11.2987 15.1838 11.3009H7.69584C7.67796 11.3001 7.65988 11.3001 7.6418 11.3009L7.64181 11.3009ZM7.64181 15.9088C7.48913 15.9159 7.34529 15.9834 7.24243 16.0965C7.13938 16.2096 7.08554 16.359 7.09277 16.5117C7.0998 16.6646 7.1675 16.8082 7.2806 16.9113C7.3937 17.0141 7.54317 17.068 7.69584 17.0608H15.1838C15.3379 17.063 15.4866 17.0033 15.5965 16.895C15.7062 16.7867 15.768 16.6391 15.768 16.4848C15.768 16.3305 15.7062 16.1828 15.5965 16.0746C15.4866 15.9663 15.3379 15.9066 15.1838 15.9088H7.69584C7.67796 15.908 7.65988 15.908 7.6418 15.9088L7.64181 15.9088ZM7.64181 20.5167C7.48913 20.5238 7.34529 20.5913 7.24243 20.7044C7.13938 20.8175 7.08554 20.9669 7.09277 21.1196C7.0998 21.2725 7.1675 21.4161 7.2806 21.5192C7.3937 21.622 7.54317 21.6759 7.69584 21.6686H15.1838C15.3379 21.6709 15.4866 21.6112 15.5965 21.5029C15.7062 21.3946 15.768 21.247 15.768 21.0927C15.768 20.9386 15.7062 20.7907 15.5965 20.6825C15.4866 20.5742 15.3379 20.5145 15.1838 20.5167H7.69584C7.67796 20.5159 7.65988 20.5159 7.6418 20.5167L7.64181 20.5167Z" fill="white"/>
</g>
<defs>
<clipPath id="clip0_3_414">
<rect width="21" height="28" fill="white" transform="translate(0 0.356445)"/>
</clipPath>
</defs>
</svg>
