<svg width="30" height="28" viewBox="0 0 30 28" fill="none" xmlns="http://www.w3.org/2000/svg">
<path d="M20.3352 7.25079C18.6198 5.70434 16.3212 4.97266 14.0275 5.24287C11.9053 5.49639 9.96806 6.57379 8.63318 8.24259C7.29825 9.9114 6.67267 12.0381 6.89145 14.1641C7.11022 16.2899 8.15566 18.2446 9.80256 19.6068C10.3705 20.0955 10.6903 20.8125 10.6748 21.5619V23.1258C10.6767 24.0983 11.0642 25.0305 11.7524 25.7176C12.4407 26.4048 13.3733 26.7909 14.3458 26.7913H15.5539C16.5264 26.7909 17.459 26.4048 18.1473 25.7176C18.8355 25.0305 19.2231 24.0984 19.2249 23.1258V21.5619C19.2202 20.7949 19.5559 20.0652 20.1415 19.5698C21.951 18.0489 23.0117 15.8178 23.0488 13.4545C23.086 11.091 22.096 8.8277 20.3353 7.25064L20.3352 7.25079ZM7.78512 12.6019C7.94604 10.9624 8.6628 9.4274 9.81635 8.25159C10.9699 7.07578 12.4908 6.32986 14.1269 6.13762C14.252 6.12356 14.3754 6.12436 14.4997 6.11673V7.89143C13.8567 7.89143 13.2624 8.23455 12.9408 8.79142C12.6194 9.34829 12.6194 10.0346 12.9408 10.5914C13.2625 11.1483 13.8567 11.4914 14.4997 11.4914V14.1914H12.6997C12.6997 13.5484 12.3566 12.9541 11.7997 12.6325C11.2429 12.3111 10.5566 12.3111 9.99974 12.6325C9.44287 12.9542 9.09974 13.5484 9.09974 14.1914H7.80641C7.74173 13.6639 7.7347 13.1309 7.78512 12.602L7.78512 12.6019ZM10.3765 18.9132C9.18799 17.9283 8.34564 16.5891 7.97258 15.0913H9.54979C9.66912 15.0913 9.78363 15.0439 9.86801 14.9595C9.95238 14.8751 9.99979 14.7606 9.99979 14.6413V14.1913C9.99979 13.8697 10.1714 13.5725 10.4498 13.4118C10.7282 13.2511 11.0714 13.2511 11.3498 13.4118C11.6282 13.5725 11.7998 13.8697 11.7998 14.1913V14.6413C11.7998 14.7606 11.8472 14.8751 11.9316 14.9595C12.016 15.0439 12.1305 15.0913 12.2498 15.0913H14.4998V16.4413C13.8567 16.4413 13.2625 16.7844 12.9409 17.3413C12.6195 17.8981 12.6195 18.5844 12.9409 19.1413C13.2625 19.6981 13.8568 20.0413 14.4998 20.0413V21.3913H11.5659C11.5376 20.4342 11.1055 19.5338 10.3765 18.9132ZM15.5538 25.8911H14.3456C13.3713 25.8903 12.4691 25.3776 11.9695 24.5411H17.93C17.4304 25.3776 16.5282 25.8902 15.5539 25.8911H15.5538ZM18.3247 23.1256C18.3243 23.2986 18.3074 23.4711 18.2747 23.6411H11.625C11.5922 23.4711 11.5753 23.2985 11.5749 23.1256V22.2911H18.3249L18.3247 23.1256ZM19.5626 18.8805C18.8199 19.5087 18.3743 20.4192 18.3339 21.3911H15.3996V19.5911C15.3996 19.4717 15.3522 19.3572 15.2679 19.2729C15.1835 19.1885 15.069 19.1411 14.9496 19.1411H14.4996C14.178 19.1411 13.8809 18.9695 13.7202 18.6911C13.5595 18.4126 13.5595 18.0695 13.7202 17.7911C13.8809 17.5126 14.178 17.3411 14.4996 17.3411H14.9496C15.069 17.3411 15.1835 17.2937 15.2679 17.2093C15.3522 17.1249 15.3996 17.0104 15.3996 16.8911V15.0911H17.6496C17.769 15.0911 17.8835 15.0437 17.9679 14.9593C18.0522 14.8749 18.0996 14.7604 18.0996 14.6411V14.1911C18.0996 13.8694 18.2712 13.5723 18.5496 13.4116C18.8281 13.2509 19.1712 13.2509 19.4496 13.4116C19.7281 13.5723 19.8996 13.8695 19.8996 14.1911V14.6411C19.8996 14.7604 19.9471 14.8749 20.0314 14.9593C20.1158 15.0437 20.2303 15.0911 20.3496 15.0911H21.9255C21.5576 16.5721 20.7306 17.8986 19.5626 18.8805ZM20.7997 14.1911C20.7997 13.548 20.4566 12.9538 19.8997 12.6322C19.3428 12.3107 18.6566 12.3107 18.0997 12.6322C17.5428 12.9538 17.1997 13.5481 17.1997 14.1911H15.3997V11.0411C15.3997 10.9217 15.3523 10.8072 15.2679 10.7229C15.1835 10.6385 15.069 10.5911 14.9497 10.5911H14.4997C14.1781 10.5911 13.881 10.4195 13.7202 10.1411C13.5595 9.86264 13.5595 9.51951 13.7202 9.24108C13.881 8.96264 14.1781 8.79108 14.4997 8.79108H14.9497C15.069 8.79108 15.1835 8.74367 15.2679 8.65929C15.3523 8.57492 15.3997 8.46041 15.3997 8.34108V6.11057C17.0086 6.20378 18.5377 6.8426 19.735 7.92142C21.503 9.49724 22.3851 11.8404 22.0956 14.1911H20.7997Z" fill="white"/>
<path d="M26.6504 1.14136C26.0537 1.14136 25.4814 1.37841 25.0593 1.80026C24.6374 2.22234 24.4004 2.79469 24.4004 3.39136C24.4004 3.98804 24.6374 4.56034 25.0593 4.98246C25.4814 5.40434 26.0537 5.64137 26.6504 5.64137C27.2471 5.64137 27.8194 5.40431 28.2415 4.98246C28.6634 4.56039 28.9004 3.98804 28.9004 3.39136C28.8998 2.79489 28.6623 2.22295 28.2407 1.80108C27.8188 1.37941 27.2469 1.14197 26.6504 1.14136ZM26.6504 4.74136C26.2924 4.74136 25.9489 4.59913 25.6958 4.34601C25.4427 4.09288 25.3004 3.74933 25.3004 3.39139C25.3004 3.03344 25.4426 2.68985 25.6958 2.43677C25.9489 2.18369 26.2924 2.04141 26.6504 2.04141C27.0083 2.04141 27.3519 2.18364 27.605 2.43677C27.8581 2.6899 28.0004 3.03344 28.0004 3.39139C28 3.74938 27.8575 4.09251 27.6046 4.34565C27.3515 4.59857 27.0083 4.741 26.6503 4.74141L26.6504 4.74136Z" fill="white"/>
<path d="M21.8594 19.7275L22.441 19.0403L24.241 20.5634L23.6594 21.2507L21.8594 19.7275Z" fill="white"/>
<path d="M5.20898 5.63866L5.79038 4.95142L8.04059 6.8549L7.45919 7.54214L5.20898 5.63866Z" fill="white"/>
<path d="M21.5723 7.0979L24.2315 4.8479L24.8131 5.53514L22.1539 7.78514L21.5723 7.0979Z" fill="white"/>
<path d="M5.08691 21.0479L7.45967 19.0408L8.04107 19.728L5.66831 21.7351L5.08691 21.0479Z" fill="white"/>
<path d="M28.4504 20.9412H24.8504C24.7311 20.9412 24.6166 20.9886 24.5322 21.0729C24.4478 21.1573 24.4004 21.2718 24.4004 21.3912V24.9912C24.4004 25.1105 24.4478 25.225 24.5322 25.3094C24.6166 25.3938 24.7311 25.4412 24.8504 25.4412H28.4504C28.5697 25.4412 28.6842 25.3938 28.7686 25.3094C28.853 25.225 28.9004 25.1105 28.9004 24.9912V21.3912C28.9004 21.2718 28.853 21.1573 28.7686 21.0729C28.6842 20.9886 28.5697 20.9412 28.4504 20.9412ZM28.0004 24.5412H25.3004V21.8412H28.0004V24.5412Z" fill="white"/>
<path d="M3.86716 21.1706C3.78078 21.0382 3.63312 20.9583 3.47502 20.9583C3.31692 20.9583 3.16926 21.0382 3.08288 21.1706L1.05787 24.7706C0.979326 24.9098 0.98093 25.0804 1.06149 25.2184C1.14225 25.3564 1.2901 25.4412 1.45002 25.4412H5.50002C5.65993 25.4412 5.80779 25.3564 5.88855 25.2184C5.96911 25.0804 5.97072 24.9098 5.89217 24.7706L3.86716 21.1706ZM2.21944 24.5412L3.47502 22.3093L4.7306 24.5412H2.21944Z" fill="white"/>
<path d="M5.11791 2.5217L4.11166 2.36781L3.65744 1.40014C3.58331 1.24223 3.42461 1.14139 3.25003 1.14139C3.07545 1.14139 2.91674 1.24223 2.84261 1.40014L2.3884 2.36781L1.38215 2.5217C1.2154 2.54701 1.07699 2.66373 1.02335 2.82364C0.969709 2.98355 1.01009 3.15994 1.12802 3.28067L1.86931 4.04043L1.69353 5.11883C1.6656 5.28899 1.73752 5.45995 1.87835 5.55919C2.01938 5.65843 2.2046 5.66847 2.35527 5.5851L3.25002 5.0907L4.14477 5.5851C4.29545 5.66847 4.48067 5.65843 4.62169 5.55919C4.76252 5.45995 4.83444 5.28899 4.80652 5.11883L4.63073 4.04043L5.37203 3.28067C5.48995 3.15993 5.53033 2.98355 5.47669 2.82364C5.42305 2.66373 5.28464 2.54701 5.1179 2.5217H5.11791ZM3.82798 3.5746C3.72813 3.67685 3.68293 3.82049 3.70603 3.96131L3.76932 4.34944L3.46777 4.1829C3.33237 4.10777 3.16764 4.10777 3.03224 4.1829L2.7307 4.34944L2.79398 3.96131C2.81708 3.82049 2.77188 3.67685 2.67204 3.5746L2.38375 3.27928L2.76184 3.22123C2.91009 3.19873 3.03746 3.1037 3.10115 2.9677L3.25001 2.65089L3.39866 2.9677C3.46255 3.1037 3.58992 3.19873 3.73818 3.22123L4.11626 3.27928L3.82798 3.5746Z" fill="white"/>
</svg>
